<?xml version="1.0" encoding="utf-8"?>
<!-- Svg Vector Icons : http://www.onlinewebfonts.com/icon -->
<!DOCTYPE svg PUBLIC "-//W3C//DTD SVG 1.1//EN" "http://www.w3.org/Graphics/SVG/1.1/DTD/svg11.dtd">
<svg version="1.1" xmlns="http://www.w3.org/2000/svg" xmlns:xlink="http://www.w3.org/1999/xlink" x="0px" y="0px" viewBox="0 0 1000 1000" enable-background="new 0 0 1000 1000" xml:space="preserve">
<metadata> Svg Vector Icons : http://www.onlinewebfonts.com/icon </metadata>
<g><path d="M382.2,793c-43.6,0-79,34.2-79,76.4c0,42.2,35.4,76.5,79,76.5c43.6,0,79-34.2,79-76.5S425.8,793,382.2,793z"/><path d="M956.2,207H193.4L176.9,90c-0.1,0-7-35.8-36.1-35.8H35.5C20.9,54.2,10,60.5,10,74.5s10.9,17.6,25.5,17.6h109l92.1,610.1c0,0-1,39.9,43.7,39.9H851c14.5,0,27.7-2,27.7-16c0-14.1-9.5-18.1-24.1-18.1l-587.9-0.8l-12.9-93.4l597.1,0.8c0.6,0,1.2,0,1.8,0c28.3,0,38.8-18.7,40.7-22.1l92.1-322.3C999.6,227.6,977.5,207,956.2,207z"/><path d="M745.9,793c-43.6,0-79,34.2-79,76.4c0,42.2,35.4,76.5,79,76.5c43.6,0,78.9-34.2,78.9-76.5S789.4,793,745.9,793z"/></g>
</svg>