<?xml version="1.0" encoding="utf-8"?>
<!-- Svg Vector Icons : http://www.onlinewebfonts.com/icon -->
<!DOCTYPE svg PUBLIC "-//W3C//DTD SVG 1.1//EN" "http://www.w3.org/Graphics/SVG/1.1/DTD/svg11.dtd">
<svg version="1.1" xmlns="http://www.w3.org/2000/svg" xmlns:xlink="http://www.w3.org/1999/xlink" x="0px" y="0px" viewBox="0 0 1000 1000" enable-background="new 0 0 1000 1000" xml:space="preserve">
<metadata> Svg Vector Icons : http://www.onlinewebfonts.com/icon </metadata>
<g><g><path d="M832.8,151.9c-5.7,8.5-17.3,10.8-25.8,5.2L670.2,65.9c-8.6-5.7-19.3-2.9-24.1,6.2l-100,192.3c-4.7,9.1-0.3,16.5,10,16.5h42.6c10.3,0,20.7,8.1,23.3,18l3.6,14c2.6,9.9-3.6,18-13.9,18H223c-10.3,0-15.6-7.8-11.8-17.3l6-15.3c3.7-9.6,15.1-17.4,25.4-17.4h234.4c10.3,0,22.5-7.4,27.2-16.5L631.2,20c2.5-4.7,6.8-8.1,11.9-9.5c5.1-1.3,10.6-0.4,15,2.6l169.6,113C836.2,131.8,838.5,143.4,832.8,151.9z M668.5,382.1c0,10.3-8.3,18.6-18.6,18.6h-8c-4.4,0-9,8.3-10.2,18.5l-65.2,552.3c-1.2,10.2-10.5,18.5-20.8,18.5H289.2c-10.3,0-19.7-8.3-20.9-18.5l-69.6-552.3c-1.3-10.2-5.4-18.5-9.2-18.5c-3.8,0-6.8,0-6.8,0c-10.3,0-18.6-8.3-18.6-18.6c0-10.3,8.3-18.6,18.6-18.6h467.2C660.2,363.5,668.5,371.8,668.5,382.1z M589.9,456.5c1.2-10.2-6.1-18.5-16.4-18.5H257.2c-10.3,0-17.6,8.3-16.3,18.5l60.2,477.8c1.3,10.2,10.7,18.5,20.9,18.5h190.6c10.3,0,19.6-8.3,20.8-18.5L589.9,456.5z"/></g><g></g><g></g><g></g><g></g><g></g><g></g><g></g><g></g><g></g><g></g><g></g><g></g><g></g><g></g><g></g></g>
</svg>