<?xml version="1.0" encoding="utf-8"?>
<!-- Svg Vector Icons : http://www.onlinewebfonts.com/icon -->
<!DOCTYPE svg PUBLIC "-//W3C//DTD SVG 1.1//EN" "http://www.w3.org/Graphics/SVG/1.1/DTD/svg11.dtd">
<svg version="1.1" xmlns="http://www.w3.org/2000/svg" xmlns:xlink="http://www.w3.org/1999/xlink" x="0px" y="0px" viewBox="0 0 1000 1000" enable-background="new 0 0 1000 1000" xml:space="preserve">
<metadata> Svg Vector Icons : http://www.onlinewebfonts.com/icon </metadata>
<g><path d="M385.3,696.3"/><path d="M614.6,634.9l369-369c6.2-6.2,8.1-15.6,4.7-23.8c-3.4-8.2-11.3-13.5-17.7-13.5H436.3C422,121.7,332,39.9,222.7,39.9C105.4,39.9,10,135.3,10,252.6c0,117.3,95.4,212.7,212.7,212.7c51.8,0,100.7-18.5,139.3-52.2l204.3,204.3c-0.3,1.4-0.4,2.8-0.4,4.2v294.8H445.8c-12.1,0-21.8,9.8-21.8,21.8c0,12.1,9.8,21.8,21.8,21.8h294.8c12.1,0,21.8-9.8,21.8-21.8c0-12.1-9.8-21.8-21.8-21.8h-131V638.5C611.4,637.5,613.2,636.4,614.6,634.9 M599.2,588.6L283,272.3h632.5L599.2,588.6z M222.7,421.7c-93.2,0-169.1-75.8-169.1-169.1c0-93.2,75.8-169.1,169.1-169.1c85.2,0,155.7,62.5,167.4,145.1H230.3c-8.8,0-16.8,5.3-20.2,13.5c-3.4,8.2-1.5,17.5,4.7,23.8l116.4,116.4C300.8,407.8,262.9,421.7,222.7,421.7"/></g>
</svg>