<?xml version="1.0" encoding="utf-8"?>
<!-- Svg Vector Icons : http://www.onlinewebfonts.com/icon -->
<!DOCTYPE svg PUBLIC "-//W3C//DTD SVG 1.1//EN" "http://www.w3.org/Graphics/SVG/1.1/DTD/svg11.dtd">
<svg version="1.1" xmlns="http://www.w3.org/2000/svg" xmlns:xlink="http://www.w3.org/1999/xlink" x="0px" y="0px" viewBox="0 0 1000 1000" enable-background="new 0 0 1000 1000" xml:space="preserve">
<metadata> Svg Vector Icons : http://www.onlinewebfonts.com/icon </metadata>
<g><path d="M500,10C229.4,10,10,229.4,10,500c0,270.6,219.4,490,490,490c270.6,0,490-219.4,490-490S770.6,10,500,10z M500,962.8C244.4,962.8,37.2,755.6,37.2,500C37.2,244.4,244.4,37.2,500,37.2S962.8,244.4,962.8,500C962.8,755.6,755.6,962.8,500,962.8z"/><path d="M496.6,262L257.2,498.8c-5,4.5-1.9,13,4.6,13l63.3-0.4v202.9c0,10.1,7.9,18.4,17.6,18.4h88.1v-166c0-10.1,7.9-18.4,17.6-18.4H554c9.7,0,17.6,8.3,17.6,18.4v166h88.1c9.7,0,17.6-8.3,17.6-18.4V511.4h63.3c6.6,0,9.5-8.5,4.6-13L505.8,262C503.1,259.6,499.2,259.6,496.6,262L496.6,262z"/></g>
</svg>