<?xml version="1.0" encoding="utf-8"?>
<!-- Svg Vector Icons : http://www.onlinewebfonts.com/icon -->
<!DOCTYPE svg PUBLIC "-//W3C//DTD SVG 1.1//EN" "http://www.w3.org/Graphics/SVG/1.1/DTD/svg11.dtd">
<svg version="1.1" xmlns="http://www.w3.org/2000/svg" xmlns:xlink="http://www.w3.org/1999/xlink" x="0px" y="0px" viewBox="0 0 1000 1000" enable-background="new 0 0 1000 1000" xml:space="preserve">
<metadata> Svg Vector Icons : http://www.onlinewebfonts.com/icon </metadata>
<g><path d="M889.8,990H110.2c-25.9,0-47-21.1-47-47V57c0-25.9,21.1-47,47-47h779.5c25.9,0,47,21.1,47,47v232.9h-67.2V77.2H130.4v845.6h739.2V708.2h67.2V943C936.8,968.9,915.7,990,889.8,990z"/><path d="M842.8,526H335.5c-18.5,0-33.6-15.1-33.6-33.6l0,0c0-18.5,15.1-33.6,33.6-33.6h507.3V526z"/><path d="M841.3,498.9L690.8,348.4c-13.1-13.1-13.1-34.5,0-47.5l0,0c13.1-13.1,34.4-13.1,47.5,0l150.5,150.5L841.3,498.9z"/><path d="M936.3,498.9l-198,198c-13.1,13.1-34.5,13.1-47.5,0l0,0c-13.1-13.1-13.1-34.5,0-47.5l198-198L936.3,498.9z"/></g>
</svg>