<?xml version="1.0" encoding="utf-8"?>
<!-- Svg Vector Icons : http://www.onlinewebfonts.com/icon -->
<!DOCTYPE svg PUBLIC "-//W3C//DTD SVG 1.1//EN" "http://www.w3.org/Graphics/SVG/1.1/DTD/svg11.dtd">
<svg version="1.1" xmlns="http://www.w3.org/2000/svg" xmlns:xlink="http://www.w3.org/1999/xlink" x="0px" y="0px" viewBox="0 0 1000 1000" enable-background="new 0 0 1000 1000" xml:space="preserve">
<metadata> Svg Vector Icons : http://www.onlinewebfonts.com/icon </metadata>
<g><g transform="translate(0.000000,512.000000) scale(0.100000,-0.100000)"><path d="M1329,4998.5c-291.4-70.9-538.7-327.8-601.9-624.9c-17.3-78.6-21.1-1167.4-17.3-4409l5.7-4303.6l47.9-95.8c59.4-122.7,174.4-237.7,297.1-297.1l95.8-47.9h4010.3h4008.4l49.9,46c63.3,59.4,82.4,161,46,239.6c-26.8,55.6-70.9,88.2-153.3,115c-30.7,9.6-34.5,36.4-34.5,203.2c0,166.8,3.8,193.6,34.5,203.2c78.6,26.9,124.6,57.5,149.5,107.4c23,44.1,26.8,674.8,23,4412.9l-5.7,4363l-53.7,51.8l-51.8,53.7l-3878,3.8C2308.6,5021.5,1403.8,5017.6,1329,4998.5z M8887.7,526.2l3.8-4088.9H5000H1108.6V330.6c0,2915.7,5.7,3914.5,23,3981.5c28.8,115,166.8,258.8,276,287.5c49.8,13.4,1259.4,17.3,3774.5,15.3l3699.8-1.9L8887.7,526.2z M8552.2-4024.7c-34.5-30.7-67.1-82.5-72.8-113.1c-15.3-70.9,30.7-172.5,101.6-214.7c47.9-32.6-155.3-32.6-3615.4-34.5c-4067.8,0-3763-9.6-3826.3,124.6c-38.3,78.6-38.3,93.9,0,172.5c63.3,134.2-241.5,124.6,3810.9,124.6h3661.4L8552.2-4024.7z"/><path d="M3692.6,3081.5c-82.4-23-122.7-46-301-174.4c-84.3-63.3-145.7-59.4-276,9.6c-141.9,74.8-228.1,76.7-302.9,1.9c-44.1-46-55.6-72.9-55.6-141.9c0-70.9,11.5-97.8,57.5-145.7c161-161,492.7-224.3,692-132.3c57.5,26.8,141.9,78.6,185.9,116.9c109.3,92,201.3,95.8,339.3,13.4c118.9-70.9,199.4-72.8,276-7.7c72.8,61.3,95.8,161,53.7,245.4c-36.4,74.8-195.5,172.5-348.9,212.8C3878.6,3114.1,3813.4,3114.1,3692.6,3081.5z"/><path d="M5977.7,3079.6c-136.1-38.3-302.9-139.9-337.4-205.1c-46-90.1-34.5-164.8,38.3-237.7c82.4-82.4,159.1-84.3,289.5-7.7c138,82.4,230,78.6,339.3-13.4c44.1-38.3,128.4-90.1,186-116.9c88.2-40.3,120.8-46,258.8-38.3c126.5,7.7,176.3,19.2,270.3,69c184,97.8,220.4,139.9,220.4,262.6c0,51.8-15.3,84.3-55.6,126.5c-74.7,74.8-161,72.8-302.9-1.9c-147.6-78.6-205.1-74.8-322.1,21.1C6382.2,3089.2,6184.7,3137.1,5977.7,3079.6z"/><path d="M4869.7,2926.2c-72.9-61.3-92-138-53.7-226.2c28.8-70.9,111.2-128.4,184-128.4c70.9,0,155.3,57.5,184,128.4C5264.6,2891.7,5030.7,3060.4,4869.7,2926.2z"/><path d="M1628.1,1317.9c-93.9-51.8-95.8-69-97.8-803.2v-688.2l55.6-55.6c92-90.1,249.2-70.9,314.4,40.3c26.8,46,32.6,115,32.6,442.8v389.1l161-157.2c153.4-151.4,162.9-157.2,249.2-157.2c86.3,0,95.9,5.8,251.1,155.3l162.9,157.2V234.8v-408.3l55.6-55.6c92-90.1,249.2-70.9,314.4,40.3c28.8,47.9,32.6,134.2,32.6,728.4v674.8l-65.2,65.2c-69,69-147.6,84.3-228.1,44.1c-23-11.5-151.4-130.4-285.6-262.6l-245.4-241.5l-264.5,262.6c-237.7,235.8-272.2,262.6-331.6,262.6C1702.8,1342.8,1653,1331.3,1628.1,1317.9z"/><path d="M3677.3,1319.8c-26.8-13.4-63.3-53.7-82.4-90.1c-30.7-61.3-32.6-128.4-28.8-734.2l5.7-669l63.3-55.6l61.4-55.6h490.7H4678l55.6,55.6c61.3,61.3,72.8,151.4,32.6,241.6c-42.2,92-97.8,105.4-456.2,105.4H3984v105.4v105.4h237.7c207,0,241.5,3.8,285.6,38.3c72.9,57.5,99.7,153.4,63.3,235.8c-44.1,105.4-107.3,128.4-366.1,128.4H3984v105.4v105.4h347h347l55.6,55.6c90.1,92,69,262.6-42.2,320.1C4618.5,1354.3,3750.2,1356.2,3677.3,1319.8z"/><path d="M5316.3,1321.7c-105.4-57.5-105.4-44.1-105.4-797.5v-697.8l55.6-55.6c61.3-59.4,151.5-72.9,237.7-34.5c90.1,40.3,99.7,80.5,109.3,465.8l9.6,360.4l333.5-398.7c182.1-220.4,350.8-410.2,373.8-423.6c76.7-44.1,182.1-30.7,243.4,30.7l55.6,55.6v682.4c0,732.3-3.8,759.1-97.8,809c-92,46-166.8,34.5-239.6-38.3l-65.2-65.2V846.3V478.3l-345,414.1c-189.8,226.2-360.4,421.7-381.5,433.2C5452.4,1350.5,5366.2,1348.6,5316.3,1321.7z"/><path d="M7147.1,1316c-93.9-49.8-99.7-80.5-92-605.8l5.7-486.9l53.7-105.4c72.8-139.9,189.8-258.8,329.7-331.6c107.3-57.5,126.5-61.3,316.3-61.3c191.7,0,207,1.9,322,65.2c143.8,78.6,258.8,197.5,325.9,343.1c51.8,107.4,51.8,116.9,57.5,577c5.7,509.9-1.9,557.8-93.9,605.8c-84.3,44.1-162.9,36.4-232-26.8l-63.3-55.6l-9.6-460.1c-9.6-506.1-11.5-509.9-141.9-605.8c-74.8-55.6-255-55.6-329.7,0c-130.4,95.9-132.3,99.7-141.9,605.8l-9.6,460.1l-63.3,55.6C7311.9,1350.5,7227.6,1360.1,7147.1,1316z"/><path d="M3088.8-1423.4c-113.1-36.4-245.4-116.9-291.4-176.4c-86.3-109.2-32.6-270.3,103.5-314.4c61.3-21.1,80.5-17.3,207,46c76.7,38.3,157.2,69,180.2,69c23,0,82.4-34.5,136.1-74.8c172.5-138,243.5-164.9,427.5-164.9c151.4,0,174.4,5.8,312.5,72.8c212.8,105.4,268.4,214.7,184,352.7c-24.9,40.3-61.4,69-111.2,84.3c-80.5,23-69,26.8-256.9-72.8c-105.4-55.6-187.9-44.1-283.7,38.3c-46,38.3-122.7,90.1-168.7,113.1C3420.4-1398.5,3203.8-1385,3088.8-1423.4z"/><path d="M6533.6-1425.3c-47.9-15.3-128.4-63.2-182.1-105.4c-164.9-130.3-233.9-139.9-377.6-46c-38.3,24.9-90.1,49.9-116.9,55.6c-69,17.2-178.3-36.4-212.8-103.5c-72.9-138-15.3-237.7,191.7-341.2c138-67.1,161-72.8,312.5-72.8c182.1,0,268.4,32.6,412.1,155.3c113.1,97.8,162.9,99.7,327.8,17.3c130.4-63.3,149.5-69,210.9-47.9c90.1,28.8,143.8,101.6,143.8,193.6c0,97.8-67.1,172.5-222.4,249.2C6872.9-1398.5,6673.6-1379.3,6533.6-1425.3z"/><path d="M4909.9-1542.2c-74.8-36.4-128.4-141.8-111.2-218.5c15.3-70.9,92-147.6,162.9-162.9c78.6-17.3,182.1,36.4,218.5,115c17.3,34.5,30.7,72.8,30.7,86.3c0,57.5-65.2,153.4-124.6,180.2C5007.7-1503.9,4986.6-1503.9,4909.9-1542.2z"/></g></g>
</svg>