<?xml version="1.0" encoding="utf-8"?>
<!-- Svg Vector Icons : http://www.onlinewebfonts.com/icon -->
<!DOCTYPE svg PUBLIC "-//W3C//DTD SVG 1.1//EN" "http://www.w3.org/Graphics/SVG/1.1/DTD/svg11.dtd">
<svg version="1.1" xmlns="http://www.w3.org/2000/svg" xmlns:xlink="http://www.w3.org/1999/xlink" x="0px" y="0px" viewBox="0 0 1000 1000" enable-background="new 0 0 1000 1000" xml:space="preserve">
<metadata> Svg Vector Icons : http://www.onlinewebfonts.com/icon </metadata>
<g><path d="M871.1,495.5C868.7,291.1,702.7,126,498,126c-206.2,0-373.3,167.4-373.3,373.9c0,206.5,167.1,373.9,373.3,373.9c0.3,0,0.7,0,1,0l20.1,62.3l16.4,50.7c-12.4,0.9-24.8,1.9-37.5,1.9c-269.5,0-488-218.8-488-488.7C10,230,228.5,11.2,498,11.2c269.5,0,488,218.8,488,488.8c0,10.9-0.9,21.5-1.6,32.2L871.1,495.5z M456.8,425c-23.4,5.8-19.4-40.4-31.5-48.5c-12.1-8.1-34.9,17.5-34.9,17.5s-36.7-32,14.8-75.4c65.6-55.2,95.5-5.6,95.5-5.6s-29.6,21.9-21.9,34.8c7.7,12.9,36.5,12.8,30.6,33.3C503.6,401.6,480.2,419.1,456.8,425z M471,233.9c-14.8-10.8-12.1-33.6,4-44.4c16.1-10.8,16.1-13.4,32.2-6.7c16.1,6.7,18.8,8.1,22.8,18.8c4,10.8,13.6,27.4-3.9,31.9C508.6,237.9,485.8,244.6,471,233.9z M444.9,762.9c-17.6,4.5-40.4,11.2-55.2,0.4c-14.8-10.8-12.1-33.6,4-44.4c16.1-10.8,16.1-13.4,32.2-6.7c16.1,6.7,18.8,8.1,22.8,18.8C452.8,741.8,462.4,758.5,444.9,762.9z M286.8,347.5c-18,8.2-14.7-3.3-29.4-21.3c-14.7-18-3.3-18,6.5-47.5c9.8-29.5,21.3-26.2,49.1-24.6c27.8,1.7,16.4,31.1,19.6,59C335.9,341,304.8,339.3,286.8,347.5z M315,499.9c-11.2,0-20.3,9.1-20.3,20.4c0,11.3,9.1,20.4,20.3,20.4c11.2,0,20.3-9.1,20.3-20.4C335.3,509,326.2,499.9,315,499.9z M315,418.5c-11.2,0-20.3,9.1-20.3,20.4c0,11.2,9.1,20.4,20.3,20.4c11.2,0,20.3-9.1,20.3-20.4C335.3,427.6,326.2,418.5,315,418.5z M233.7,499.9c-11.2,0-20.3,9.1-20.3,20.4c0,11.3,9.1,20.4,20.3,20.4s20.3-9.1,20.3-20.4C254,509,244.9,499.9,233.7,499.9z M233.7,418.5c-11.2,0-20.3,9.1-20.3,20.4c0,11.2,9.1,20.4,20.3,20.4s20.3-9.1,20.3-20.4C254,427.6,244.9,418.5,233.7,418.5z M376,479.6c0,56.2-45.5,101.8-101.7,101.8c-56.1,0-101.7-45.6-101.7-101.8c0-56.2,45.5-101.8,101.7-101.8C330.5,377.7,376,423.3,376,479.6z M347.7,639c10.8,19.5,17.3,26,8.7,45.6c-8.7,19.5-15.2,34.7-15.2,34.7s-58.5,34.8-78.1,4.3c-19.5-30.4-45.5-23.9-17.3-56.4c28.2-32.6,58.5-32.6,73.7-39.1C334.7,621.7,336.9,619.5,347.7,639z M640.4,337c-11.2,0-20.3,9.1-20.3,20.3c0,11.3,9.1,20.4,20.3,20.4c11.2,0,20.3-9.1,20.3-20.4C660.7,346.1,651.6,337,640.4,337z M640.4,255.5c-11.2,0-20.3,9.1-20.3,20.4c0,11.2,9.1,20.4,20.3,20.4c11.2,0,20.3-9.1,20.3-20.4C660.7,264.7,651.6,255.5,640.4,255.5z M721.7,296.3c11.2,0,20.3-9.1,20.3-20.4s-9.1-20.4-20.3-20.4s-20.3,9.1-20.3,20.4C701.4,287.2,710.5,296.3,721.7,296.3z M721.7,377.7c11.2,0,20.3-9.1,20.3-20.4c0-11.2-9.1-20.3-20.3-20.3s-20.3,9.1-20.3,20.3C701.4,368.6,710.5,377.7,721.7,377.7z M782.7,316.7c0,56.2-45.5,101.8-101.7,101.8c-56.1,0-101.7-45.6-101.7-101.8c0-56.3,45.5-101.8,101.7-101.8C737.2,214.8,782.7,260.4,782.7,316.7z M846.8,628.4L690.9,578c0.6,1.3,1.3,2.5,1.9,4.2c4,10.8,13.6,27.4-3.9,31.9c-17.6,4.4-40.4,11.2-55.2,0.4c-14.8-10.8-12.1-33.6,4-44.4c3.9-2.6,6.8-4.7,9.2-6.3l-81.9-26.5c-4.5-1.4-9.5-0.1-13,3.4l-9.5,9.5c-3.5,3.5-4.9,8.6-3.4,13.1l50.7,157.2c16.5-34,50.9-57.6,91.2-57.6c50.5,0,92.1,37,100,85.4c42.3-46.7,70.7-100.5,72-102.9c1.7-3.2,2-6.9,0.8-10.2C852.6,631.9,850.1,629.5,846.8,628.4z M640.4,744.3c11.2,0,20.3-9.1,20.3-20.4c0-11.2-9.1-20.4-20.3-20.4c-11.2,0-20.3,9.1-20.3,20.4C620,735.2,629.1,744.3,640.4,744.3z M640.4,825.8c11.2,0,20.3-9.1,20.3-20.4c0-11.2-9.1-20.3-20.3-20.3c-11.2,0-20.3,9.1-20.3,20.3C620,816.7,629.1,825.8,640.4,825.8z M721.7,744.3c11.2,0,20.3-9.1,20.3-20.4c0-11.2-9.1-20.4-20.3-20.4s-20.3,9.1-20.3,20.4C701.4,735.2,710.5,744.3,721.7,744.3z M721.7,825.8c11.2,0,20.3-9.1,20.3-20.4c0-11.2-9.1-20.3-20.3-20.3s-20.3,9.1-20.3,20.3C701.4,816.7,710.5,825.8,721.7,825.8z M987.5,637.4c-2.4,4.6-59.4,113.1-142.1,195.9c-89.2,89.3-201.2,150.3-205.9,152.8c-5.5,3-11.7,3.5-17.2,1.5c-5.5-2-9.7-6.3-11.5-11.9L456.9,498.8c-2.4-7.5-0.2-16.1,5.8-22.1l16-16c5.9-5.9,14.5-8.2,22-5.8l476.2,154c5.5,1.8,9.8,5.9,11.9,11.4C990.8,625.7,990.3,632,987.5,637.4z"/></g>
</svg>